<svg width="32" height="32" viewBox="0 0 32 32" fill="none" xmlns="http://www.w3.org/2000/svg">
<g filter="url(#filter0_d_122_4312)">
<rect width="24" height="24" transform="translate(4)" fill="white" style="mix-blend-mode:multiply"/>
<path d="M12.94 18.705C14.2069 18.7129 15.4627 18.4693 16.6346 17.9881C17.8066 17.507 18.8714 16.798 19.7672 15.9022C20.663 15.0063 21.3721 13.9416 21.8532 12.7696C22.3343 11.5976 22.578 10.3418 22.57 9.07496C22.57 8.92496 22.57 8.78246 22.57 8.63246C23.2267 8.15132 23.7951 7.56009 24.25 6.88496C23.6316 7.1554 22.9773 7.33477 22.3075 7.41746C23.0177 6.99429 23.5506 6.32821 23.8075 5.54246C23.1456 5.93954 22.4199 6.21868 21.6625 6.36746C21.1524 5.82398 20.4775 5.46375 19.7421 5.3425C19.0067 5.22124 18.2518 5.34573 17.5943 5.6967C16.9368 6.04766 16.4132 6.60554 16.1047 7.28402C15.7962 7.96249 15.7198 8.72373 15.8875 9.44996C14.542 9.38392 13.2255 9.03522 12.0238 8.42659C10.822 7.81795 9.7619 6.96302 8.9125 5.91746C8.48419 6.66084 8.35437 7.5392 8.54932 8.3747C8.74427 9.2102 9.24942 9.9404 9.9625 10.4175C9.43646 10.3972 8.92259 10.2533 8.4625 9.99746V10.035C8.45783 10.8118 8.71954 11.5668 9.20403 12.1742C9.68851 12.7815 10.3665 13.2044 11.125 13.3725C10.6357 13.5041 10.1232 13.5246 9.625 13.4325C9.84459 14.095 10.2638 14.6734 10.825 15.0883C11.3863 15.5032 12.0622 15.7343 12.76 15.75C11.5669 16.7104 10.0841 17.239 8.5525 17.25C8.28396 17.2422 8.01606 17.2197 7.75 17.1825C9.30022 18.1701 11.1019 18.6909 12.94 18.6825" fill="#2A254B"/>
</g>
<defs>
<filter id="filter0_d_122_4312" x="0" y="0" width="32" height="32" filterUnits="userSpaceOnUse" color-interpolation-filters="sRGB">
<feFlood flood-opacity="0" result="BackgroundImageFix"/>
<feColorMatrix in="SourceAlpha" type="matrix" values="0 0 0 0 0 0 0 0 0 0 0 0 0 0 0 0 0 0 127 0" result="hardAlpha"/>
<feOffset dy="4"/>
<feGaussianBlur stdDeviation="2"/>
<feComposite in2="hardAlpha" operator="out"/>
<feColorMatrix type="matrix" values="0 0 0 0 0 0 0 0 0 0 0 0 0 0 0 0 0 0 0.25 0"/>
<feBlend mode="normal" in2="BackgroundImageFix" result="effect1_dropShadow_122_4312"/>
<feBlend mode="normal" in="SourceGraphic" in2="effect1_dropShadow_122_4312" result="shape"/>
</filter>
</defs>
</svg>
